{
  "accessors": [
    {
      "bufferView": 2,
      "componentType": 5126,
      "count": 3456,
      "max": [
        98.12423706054688,
        163.85025024414063,
        125.81075286865234
      ],
      "min": [
        -119.56340026855469,
        -176.41867065429688,
        -126.7021255493164
      ],
      "type": "VEC3"
    },
    {
      "bufferView": 2,
      "byteOffset": 41472,
      "componentType": 5126,
      "count": 3456,
      "max": [
        1.0,
        1.0,
        1.0
      ],
      "min": [
        -1.0,
        -1.0,
        -1.0
      ],
      "type": "VEC3"
    },
    {
      "bufferView": 3,
      "componentType": 5126,
      "count": 3456,
      "max": [
        1.0,
        0.9999921321868896,
        0.9999998807907104,
        1.0
      ],
      "min": [
        -1.0,
        -1.0,
        -0.9998798370361328,
        -1.0
      ],
      "type": "VEC4"
    },
    {
      "bufferView": 1,
      "componentType": 5126,
      "count": 3456,
      "max": [
        0.9988877773284912,
        0.9994819164276123
      ],
      "min": [
        0.002835073508322239,
        0.0016279141418635845
      ],
      "type": "VEC2"
    },
    {
      "bufferView": 1,
      "byteOffset": 27648,
      "componentType": 5126,
      "count": 3456,
      "max": [
        0.9988877773284912,
        0.9994819164276123
      ],
      "min": [
        0.002835073508322239,
        0.0016279141418635845
      ],
      "type": "VEC2"
    },
    {
      "bufferView": 1,
      "byteOffset": 55296,
      "componentType": 5126,
      "count": 3456,
      "max": [
        0.9988877773284912,
        0.9994819164276123
      ],
      "min": [
        0.002835073508322239,
        0.0016279141418635845
      ],
      "type": "VEC2"
    },
    {
      "bufferView": 1,
      "byteOffset": 82944,
      "componentType": 5126,
      "count": 3456,
      "max": [
        0.9988877773284912,
        0.9994819164276123
      ],
      "min": [
        0.002835073508322239,
        0.0016279141418635845
      ],
      "type": "VEC2"
    },
    {
      "bufferView": 0,
      "componentType": 5125,
      "count": 12324,
      "type": "SCALAR"
    },
    {
      "bufferView": 2,
      "byteOffset": 82944,
      "componentType": 5126,
      "count": 1196,
      "max": [
        -71.30169677734375,
        70.75978088378906,
        1.362239956855774
      ],
      "min": [
        -96.39067840576172,
        59.87273025512695,
        -23.7310733795166
      ],
      "type": "VEC3"
    },
    {
      "bufferView": 2,
      "byteOffset": 97296,
      "componentType": 5126,
      "count": 1196,
      "max": [
        0.9986207485198975,
        1.0,
        0.9996755719184875
      ],
      "min": [
        -0.9993512034416199,
        -0.9999998807907104,
        -0.9999673366546631
      ],
      "type": "VEC3"
    },
    {
      "bufferView": 3,
      "byteOffset": 55296,
      "componentType": 5126,
      "count": 1196,
      "max": [
        0.9989576935768127,
        0.999975860118866,
        0.9999709725379944,
        1.0
      ],
      "min": [
        -0.9999884366989136,
        -0.9999987483024597,
        -0.9833427667617798,
        -1.0
      ],
      "type": "VEC4"
    },
    {
      "bufferView": 1,
      "byteOffset": 110592,
      "componentType": 5126,
      "count": 1196,
      "max": [
        0.91634601354599,
        0.7916362285614014
      ],
      "min": [
        0.06563841551542282,
        0.4443887770175934
      ],
      "type": "VEC2"
    },
    {
      "bufferView": 1,
      "byteOffset": 120160,
      "componentType": 5126,
      "count": 1196,
      "max": [
        0.91634601354599,
        0.7916362285614014
      ],
      "min": [
        0.06563841551542282,
        0.4443887770175934
      ],
      "type": "VEC2"
    },
    {
      "bufferView": 1,
      "byteOffset": 129728,
      "componentType": 5126,
      "count": 1196,
      "max": [
        0.91634601354599,
        0.7916362285614014
      ],
      "min": [
        0.06563841551542282,
        0.4443887770175934
      ],
      "type": "VEC2"
    },
    {
      "bufferView": 1,
      "byteOffset": 139296,
      "componentType": 5126,
      "count": 1196,
      "max": [
        0.91634601354599,
        0.7916362285614014
      ],
      "min": [
        0.06563841551542282,
        0.4443887770175934
      ],
      "type": "VEC2"
    },
    {
      "bufferView": 0,
      "byteOffset": 49296,
      "componentType": 5125,
      "count": 1200,
      "type": "SCALAR"
    },
    {
      "bufferView": 2,
      "byteOffset": 111648,
      "componentType": 5126,
      "count": 25,
      "max": [
        0.6935272216796875,
        0.8674716949462891,
        0.0
      ],
      "min": [
        -0.6935272216796875,
        -0.8674716949462891,
        0.0
      ],
      "type": "VEC3"
    },
    {
      "bufferView": 2,
      "byteOffset": 111948,
      "componentType": 5126,
      "count": 25,
      "max": [
        0.0,
        0.0,
        1.0
      ],
      "min": [
        0.0,
        0.0,
        1.0
      ],
      "type": "VEC3"
    },
    {
      "bufferView": 1,
      "byteOffset": 148864,
      "componentType": 5126,
      "count": 25,
      "max": [
        1.0,
        1.0
      ],
      "min": [
        -5.960464477539063e-08,
        0.0
      ],
      "type": "VEC2"
    },
    {
      "bufferView": 1,
      "byteOffset": 149064,
      "componentType": 5126,
      "count": 25,
      "max": [
        1.0,
        1.0
      ],
      "min": [
        -5.960464477539063e-08,
        0.0
      ],
      "type": "VEC2"
    },
    {
      "bufferView": 0,
      "byteOffset": 54096,
      "componentType": 5125,
      "count": 96,
      "type": "SCALAR"
    },
    {
      "bufferView": 2,
      "byteOffset": 112248,
      "componentType": 5126,
      "count": 2056,
      "max": [
        48.89656066894531,
        90.23477172851563,
        89.00983428955078
      ],
      "min": [
        -76.93761444091797,
        -88.864501953125,
        -90.08943939208984
      ],
      "type": "VEC3"
    },
    {
      "bufferView": 2,
      "byteOffset": 136920,
      "componentType": 5126,
      "count": 2056,
      "max": [
        0.9999995231628418,
        0.9974980354309082,
        0.9997008442878723
      ],
      "min": [
        -0.9999995231628418,
        -0.9991695284843445,
        -0.9996873736381531
      ],
      "type": "VEC3"
    },
    {
      "bufferView": 3,
      "byteOffset": 74432,
      "componentType": 5126,
      "count": 2056,
      "max": [
        1.0,
        0.9998788833618164,
        0.9997575879096985,
        1.0
      ],
      "min": [
        -1.0,
        -0.9998233318328857,
        -0.9951385259628296,
        -1.0
      ],
      "type": "VEC4"
    },
    {
      "bufferView": 1,
      "byteOffset": 149264,
      "componentType": 5126,
      "count": 2056,
      "max": [
        0.9988096952438354,
        0.998812735080719
      ],
      "min": [
        0.1053742840886116,
        0.050351522862911224
      ],
      "type": "VEC2"
    },
    {
      "bufferView": 1,
      "byteOffset": 165712,
      "componentType": 5126,
      "count": 2056,
      "max": [
        0.9988096952438354,
        0.998812735080719
      ],
      "min": [
        0.1053742840886116,
        0.050351522862911224
      ],
      "type": "VEC2"
    },
    {
      "bufferView": 1,
      "byteOffset": 182160,
      "componentType": 5126,
      "count": 2056,
      "max": [
        0.9988096952438354,
        0.998812735080719
      ],
      "min": [
        0.1053742840886116,
        0.050351522862911224
      ],
      "type": "VEC2"
    },
    {
      "bufferView": 1,
      "byteOffset": 198608,
      "componentType": 5126,
      "count": 2056,
      "max": [
        0.9988096952438354,
        0.998812735080719
      ],
      "min": [
        0.1053742840886116,
        0.050351522862911224
      ],
      "type": "VEC2"
    },
    {
      "bufferView": 0,
      "byteOffset": 54480,
      "componentType": 5125,
      "count": 3084,
      "type": "SCALAR"
    },
    {
      "bufferView": 4,
      "componentType": 5126,
      "count": 101,
      "max": [
        3.3333332538604736
      ],
      "min": [
        0.0
      ],
      "type": "SCALAR"
    },
    {
      "bufferView": 5,
      "componentType": 5126,
      "count": 101,
      "max": [
        0.7058993577957153,
        0.7069689631462097,
        0.7070470452308655,
        0.7071446180343628
      ],
      "min": [
        -0.7069477438926697,
        -0.7055303454399109,
        -0.496180921792984,
        -0.4927283823490143
      ],
      "type": "VEC4"
    },
    {
      "bufferView": 4,
      "byteOffset": 404,
      "componentType": 5126,
      "count": 101,
      "max": [
        3.3333332538604736
      ],
      "min": [
        0.0
      ],
      "type": "SCALAR"
    },
    {
      "bufferView": 5,
      "byteOffset": 1616,
      "componentType": 5126,
      "count": 101,
      "max": [
        0.4880140721797943,
        0.4773208796977997,
        0.7135372161865234,
        0.7137383222579956
      ],
      "min": [
        -0.7002151608467102,
        -0.7004124522209167,
        -0.49729907512664795,
        -0.4864024519920349
      ],
      "type": "VEC4"
    },
    {
      "bufferView": 4,
      "byteOffset": 808,
      "componentType": 5126,
      "count": 101,
      "max": [
        3.3333332538604736
      ],
      "min": [
        0.0
      ],
      "type": "SCALAR"
    },
    {
      "bufferView": 5,
      "byteOffset": 3232,
      "componentType": 5126,
      "count": 101,
      "max": [
        0.5421819090843201,
        0.7111326456069946,
        0.711290717124939,
        0.7028595209121704
      ],
      "min": [
        -0.7028535604476929,
        -0.48665016889572144,
        -0.5419709086418152,
        -0.4863368272781372
      ],
      "type": "VEC4"
    }
  ],
  "animations": [
    {
      "channels": [
        {
          "sampler": 0,
          "target": {
            "node": 7,
            "path": "rotation"
          }
        },
        {
          "sampler": 1,
          "target": {
            "node": 10,
            "path": "rotation"
          }
        },
        {
          "sampler": 2,
          "target": {
            "node": 13,
            "path": "rotation"
          }
        }
      ],
      "name": "Take 001",
      "samplers": [
        {
          "input": 29,
          "interpolation": "LINEAR",
          "output": 30
        },
        {
          "input": 31,
          "interpolation": "LINEAR",
          "output": 32
        },
        {
          "input": 33,
          "interpolation": "LINEAR",
          "output": 34
        }
      ]
    }
  ],
  "asset": {
    "extras": {
      "author": "JulienBernier3D (https://sketchfab.com/JulienBernier3D)",
      "license": "CC-BY-4.0 (http://creativecommons.org/licenses/by/4.0/)",
      "source": "https://sketchfab.com/3d-models/game-asset-generator-81ebf1f8201a4bc2a289756b1a64e809",
      "title": "Game Asset: Generator"
    },
    "generator": "Sketchfab-12.67.0",
    "version": "2.0"
  },
  "bufferViews": [
    {
      "buffer": 0,
      "byteLength": 66816,
      "name": "floatBufferViews",
      "target": 34963
    },
    {
      "buffer": 0,
      "byteLength": 215056,
      "byteOffset": 66816,
      "byteStride": 8,
      "name": "floatBufferViews",
      "target": 34962
    },
    {
      "buffer": 0,
      "byteLength": 161592,
      "byteOffset": 281872,
      "byteStride": 12,
      "name": "floatBufferViews",
      "target": 34962
    },
    {
      "buffer": 0,
      "byteLength": 107328,
      "byteOffset": 443464,
      "byteStride": 16,
      "name": "floatBufferViews",
      "target": 34962
    },
    {
      "buffer": 0,
      "byteLength": 1212,
      "byteOffset": 550792,
      "name": "floatBufferViews"
    },
    {
      "buffer": 0,
      "byteLength": 4848,
      "byteOffset": 552004,
      "byteStride": 16,
      "name": "floatBufferViews"
    }
  ],
  "buffers": [
    {
      "byteLength": 556852,
      "uri": "scene.bin"
    }
  ],
  "images": [
    {
      "uri": "textures/M_Generator_baseColor.png"
    },
    {
      "uri": "textures/M_Generator_metallicRoughness.png"
    },
    {
      "uri": "textures/M_Generator_emissive.png"
    },
    {
      "uri": "textures/M_Generator_normal.png"
    }
  ],
  "materials": [
    {
      "doubleSided": true,
      "emissiveFactor": [
        1.0,
        1.0,
        1.0
      ],
      "emissiveTexture": {
        "index": 2
      },
      "name": "M_Generator",
      "normalTexture": {
        "index": 3,
        "scale": 0.5200076219512195
      },
      "pbrMetallicRoughness": {
        "baseColorTexture": {
          "index": 0
        },
        "metallicRoughnessTexture": {
          "index": 1
        }
      }
    },
    {
      "doubleSided": true,
      "name": "Material_24",
      "pbrMetallicRoughness": {
        "baseColorFactor": [
          0.588,
          0.588,
          0.588,
          1.0
        ],
        "metallicFactor": 0.0,
        "roughnessFactor": 0.8929713596497552
      }
    }
  ],
  "meshes": [
    {
      "name": "Generatrice_M_Generator_0",
      "primitives": [
        {
          "attributes": {
            "NORMAL": 1,
            "POSITION": 0,
            "TANGENT": 2,
            "TEXCOORD_0": 3,
            "TEXCOORD_1": 4,
            "TEXCOORD_2": 5,
            "TEXCOORD_3": 6
          },
          "indices": 7,
          "material": 0,
          "mode": 4
        }
      ]
    },
    {
      "name": "roue001_M_Generator_0",
      "primitives": [
        {
          "attributes": {
            "NORMAL": 9,
            "POSITION": 8,
            "TANGENT": 10,
            "TEXCOORD_0": 11,
            "TEXCOORD_1": 12,
            "TEXCOORD_2": 13,
            "TEXCOORD_3": 14
          },
          "indices": 15,
          "material": 0,
          "mode": 4
        }
      ]
    },
    {
      "name": "Plane001_Material #24_0",
      "primitives": [
        {
          "attributes": {
            "NORMAL": 17,
            "POSITION": 16,
            "TEXCOORD_0": 18,
            "TEXCOORD_1": 19
          },
          "indices": 20,
          "material": 1,
          "mode": 4
        }
      ]
    },
    {
      "name": "Object001_M_Generator_0",
      "primitives": [
        {
          "attributes": {
            "NORMAL": 22,
            "POSITION": 21,
            "TANGENT": 23,
            "TEXCOORD_0": 24,
            "TEXCOORD_1": 25,
            "TEXCOORD_2": 26,
            "TEXCOORD_3": 27
          },
          "indices": 28,
          "material": 0,
          "mode": 4
        }
      ]
    }
  ],
  "nodes": [
    {
      "children": [
        1
      ],
      "matrix": [
        1.0,
        0.0,
        0.0,
        0.0,
        0.0,
        2.220446049250313e-16,
        -1.0,
        0.0,
        0.0,
        1.0,
        2.220446049250313e-16,
        0.0,
        0.0,
        0.0,
        0.0,
        1.0
      ],
      "name": "Sketchfab_model"
    },
    {
      "children": [
        2
      ],
      "matrix": [
        1.0,
        0.0,
        0.0,
        0.0,
        0.0,
        0.0,
        1.0,
        0.0,
        0.0,
        -1.0,
        0.0,
        0.0,
        0.0,
        0.0,
        0.0,
        1.0
      ],
      "name": "0106a6bd3d914db29aa3f3d0910bcca9.fbx"
    },
    {
      "children": [
        3
      ],
      "name": "Object_2"
    },
    {
      "children": [
        4,
        7,
        10,
        13
      ],
      "name": "RootNode"
    },
    {
      "children": [
        5
      ],
      "name": "Generatrice",
      "rotation": [
        -0.4952663779258728,
        0.5046892166137695,
        0.5046889781951904,
        0.4952666163444519
      ],
      "scale": [
        0.46269699931144714,
        0.5001620054244995,
        0.4824019968509674
      ]
    },
    {
      "children": [
        6
      ],
      "matrix": [
        1.0,
        0.0,
        -0.0,
        0.0,
        0.0,
        1.0,
        0.0,
        0.0,
        0.0,
        0.0,
        1.0,
        0.0,
        2.7726207289281712e-14,
        1.738833998388145e-05,
        36.971229553222656,
        1.0
      ],
      "name": "Object_5"
    },
    {
      "mesh": 0,
      "name": "Generatrice_M_Generator_0"
    },
    {
      "children": [
        8
      ],
      "name": "roue001",
      "rotation": [
        0.29600825905799866,
        -0.3016400635242462,
        0.646865963935852,
        0.6347888112068176
      ],
      "scale": [
        0.46269699931144714,
        0.5001620054244995,
        0.4824019968509674
      ],
      "translation": [
        -31.931840896606445,
        12.267300605773926,
        39.28653335571289
      ]
    },
    {
      "children": [
        9
      ],
      "matrix": [
        1.0,
        0.0,
        -0.0,
        0.0,
        0.0,
        1.0,
        0.0,
        0.0,
        0.0,
        0.0,
        1.0,
        0.0,
        83.59211730957031,
        -65.31182861328125,
        11.541618347167969,
        1.0
      ],
      "name": "Object_8"
    },
    {
      "mesh": 1,
      "name": "roue001_M_Generator_0"
    },
    {
      "children": [
        11
      ],
      "name": "Plane001",
      "rotation": [
        -1.545692214222072e-07,
        -0.7004124522209167,
        -1.5168333789006283e-07,
        0.7137383222579956
      ],
      "translation": [
        -31.835674285888672,
        21.508575439453125,
        40.6907844543457
      ]
    },
    {
      "children": [
        12
      ],
      "matrix": [
        1.0,
        0.0,
        -0.0,
        0.0,
        0.0,
        1.0,
        0.0,
        0.0,
        0.0,
        0.0,
        1.0,
        0.0,
        -0.13872353732585907,
        0.6986885070800781,
        -0.0026143728755414486,
        1.0
      ],
      "name": "Object_11"
    },
    {
      "mesh": 2,
      "name": "Plane001_Material #24_0"
    },
    {
      "children": [
        14
      ],
      "name": "Object001",
      "rotation": [
        -0.7004221677780151,
        0.0700141191482544,
        0.7078366279602051,
        0.05894150584936142
      ],
      "scale": [
        0.46269699931144714,
        0.5001620054244995,
        0.4824019968509674
      ],
      "translation": [
        0.42777466773986816,
        19.013723373413086,
        6.4687981605529785
      ]
    },
    {
      "children": [
        15
      ],
      "matrix": [
        1.0,
        0.0,
        -0.0,
        0.0,
        0.0,
        1.0,
        0.0,
        0.0,
        0.0,
        0.0,
        1.0,
        0.0,
        13.99519157409668,
        0.3195043206214905,
        -1.382786750793457,
        1.0
      ],
      "name": "Object_14"
    },
    {
      "mesh": 3,
      "name": "Object001_M_Generator_0"
    }
  ],
  "samplers": [
    {
      "magFilter": 9729,
      "minFilter": 9987,
      "wrapS": 10497,
      "wrapT": 10497
    }
  ],
  "scene": 0,
  "scenes": [
    {
      "name": "Sketchfab_Scene",
      "nodes": [
        0
      ]
    }
  ],
  "textures": [
    {
      "sampler": 0,
      "source": 0
    },
    {
      "sampler": 0,
      "source": 1
    },
    {
      "sampler": 0,
      "source": 2
    },
    {
      "sampler": 0,
      "source": 3
    }
  ]
}
