{
  "accessors": [
    {
      "bufferView": 2,
      "componentType": 5126,
      "count": 22148,
      "max": [
        0.09250800311565399,
        0.18896299600601196,
        0.05507500097155571
      ],
      "min": [
        -0.15474699437618256,
        -0.0676639974117279,
        -0.0992330014705658
      ],
      "type": "VEC3"
    },
    {
      "bufferView": 2,
      "byteOffset": 265776,
      "componentType": 5126,
      "count": 22148,
      "max": [
        0.9999778866767883,
        0.9999340176582336,
        0.999997615814209
      ],
      "min": [
        -0.9999849796295166,
        -0.9996849894523621,
        -0.9999980926513672
      ],
      "type": "VEC3"
    },
    {
      "bufferView": 3,
      "componentType": 5126,
      "count": 22148,
      "max": [
        0.9999935030937195,
        0.9999252557754517,
        0.9999105930328369,
        1.0
      ],
      "min": [
        -0.9999893307685852,
        -0.9999755620956421,
        -0.9996111392974854,
        -1.0
      ],
      "type": "VEC4"
    },
    {
      "bufferView": 1,
      "componentType": 5126,
      "count": 22148,
      "max": [
        0.9926720261573792,
        0.9980469942092896
      ],
      "min": [
        0.0019529999699443579,
        0.0019529999699443579
      ],
      "type": "VEC2"
    },
    {
      "bufferView": 0,
      "componentType": 5125,
      "count": 119988,
      "type": "SCALAR"
    },
    {
      "bufferView": 2,
      "byteOffset": 531552,
      "componentType": 5126,
      "count": 15539,
      "max": [
        0.06449499726295471,
        0.1076740026473999,
        0.06273800134658813
      ],
      "min": [
        -0.10906100273132324,
        -0.03306800127029419,
        -0.05805499851703644
      ],
      "type": "VEC3"
    },
    {
      "bufferView": 2,
      "byteOffset": 718020,
      "componentType": 5126,
      "count": 15539,
      "max": [
        1.0,
        1.0,
        1.0
      ],
      "min": [
        -1.0,
        -1.0,
        -1.0
      ],
      "type": "VEC3"
    },
    {
      "bufferView": 3,
      "byteOffset": 354368,
      "componentType": 5126,
      "count": 15539,
      "max": [
        1.0,
        1.0,
        1.0,
        1.0
      ],
      "min": [
        -1.0,
        -1.0,
        -1.0,
        -1.0
      ],
      "type": "VEC4"
    },
    {
      "bufferView": 1,
      "byteOffset": 177184,
      "componentType": 5126,
      "count": 15539,
      "max": [
        0.9965479969978333,
        0.9980469942092896
      ],
      "min": [
        0.0019529999699443579,
        0.0019529999699443579
      ],
      "type": "VEC2"
    },
    {
      "bufferView": 0,
      "byteOffset": 479952,
      "componentType": 5125,
      "count": 76893,
      "type": "SCALAR"
    },
    {
      "bufferView": 2,
      "byteOffset": 904488,
      "componentType": 5126,
      "count": 2213,
      "max": [
        0.08721999824047089,
        0.14407700300216675,
        0.058566998690366745
      ],
      "min": [
        -0.05983800068497658,
        -0.023527000099420547,
        -0.05428000167012215
      ],
      "type": "VEC3"
    },
    {
      "bufferView": 2,
      "byteOffset": 931044,
      "componentType": 5126,
      "count": 2213,
      "max": [
        0.9996772408485413,
        0.9998518824577332,
        1.0
      ],
      "min": [
        -0.9990354776382446,
        -0.9990383386611938,
        -1.0
      ],
      "type": "VEC3"
    },
    {
      "bufferView": 1,
      "byteOffset": 301496,
      "componentType": 5126,
      "count": 2213,
      "max": [
        0.984391987323761,
        0.9980469942092896
      ],
      "min": [
        0.0019529999699443579,
        0.0019529999699443579
      ],
      "type": "VEC2"
    },
    {
      "bufferView": 0,
      "byteOffset": 787524,
      "componentType": 5125,
      "count": 11940,
      "type": "SCALAR"
    },
    {
      "bufferView": 2,
      "byteOffset": 957600,
      "componentType": 5126,
      "count": 10090,
      "max": [
        0.08101599663496017,
        0.13297900557518005,
        0.06749899685382843
      ],
      "min": [
        -0.08035700023174286,
        -0.1285260021686554,
        -0.06959199905395508
      ],
      "type": "VEC3"
    },
    {
      "bufferView": 2,
      "byteOffset": 1078680,
      "componentType": 5126,
      "count": 10090,
      "max": [
        0.9995916485786438,
        0.9999489784240723,
        1.0
      ],
      "min": [
        -0.9999855160713196,
        -0.9999961256980896,
        -0.9999499917030334
      ],
      "type": "VEC3"
    },
    {
      "bufferView": 3,
      "byteOffset": 602992,
      "componentType": 5126,
      "count": 10090,
      "max": [
        0.9997866153717041,
        0.9999115467071533,
        0.9999977350234985,
        1.0
      ],
      "min": [
        -0.9999763369560242,
        -0.9999373555183411,
        -0.9998872876167297,
        -1.0
      ],
      "type": "VEC4"
    },
    {
      "bufferView": 1,
      "byteOffset": 319200,
      "componentType": 5126,
      "count": 10090,
      "max": [
        0.9980469942092896,
        0.9970470070838928
      ],
      "min": [
        0.0019529999699443579,
        0.0019529999699443579
      ],
      "type": "VEC2"
    },
    {
      "bufferView": 0,
      "byteOffset": 835284,
      "componentType": 5125,
      "count": 53925,
      "type": "SCALAR"
    }
  ],
  "asset": {
    "extras": {
      "author": "Andy Woodhead (https://sketchfab.com/Andywoodhead)",
      "license": "CC-BY-4.0 (http://creativecommons.org/licenses/by/4.0/)",
      "source": "https://sketchfab.com/3d-models/steampunk-mask-free-download-5d22ee281bfb4dd5b36578ac0cf0c66f",
      "title": "Steampunk mask - free download"
    },
    "generator": "Sketchfab-13.65.0",
    "version": "2.0"
  },
  "bufferViews": [
    {
      "buffer": 0,
      "byteLength": 1050984,
      "name": "floatBufferViews",
      "target": 34963
    },
    {
      "buffer": 0,
      "byteLength": 399920,
      "byteOffset": 1050984,
      "byteStride": 8,
      "name": "floatBufferViews",
      "target": 34962
    },
    {
      "buffer": 0,
      "byteLength": 1199760,
      "byteOffset": 1450904,
      "byteStride": 12,
      "name": "floatBufferViews",
      "target": 34962
    },
    {
      "buffer": 0,
      "byteLength": 764432,
      "byteOffset": 2650664,
      "byteStride": 16,
      "name": "floatBufferViews",
      "target": 34962
    }
  ],
  "buffers": [
    {
      "byteLength": 3415096,
      "uri": "scene.bin"
    }
  ],
  "images": [
    {
      "uri": "textures/Mask_baseColor.jpeg"
    },
    {
      "uri": "textures/Mask_metallicRoughness.png"
    },
    {
      "uri": "textures/Mask_normal.png"
    },
    {
      "uri": "textures/Glass_baseColor.png"
    },
    {
      "uri": "textures/Glass_metallicRoughness.png"
    },
    {
      "uri": "textures/Goggles_baseColor.jpeg"
    },
    {
      "uri": "textures/Goggles_metallicRoughness.png"
    },
    {
      "uri": "textures/Goggles_normal.png"
    },
    {
      "uri": "textures/material_baseColor.jpeg"
    },
    {
      "uri": "textures/material_metallicRoughness.png"
    },
    {
      "uri": "textures/material_normal.png"
    }
  ],
  "materials": [
    {
      "doubleSided": true,
      "name": "Mask",
      "normalTexture": {
        "index": 2
      },
      "occlusionTexture": {
        "index": 1
      },
      "pbrMetallicRoughness": {
        "baseColorTexture": {
          "index": 0
        },
        "metallicRoughnessTexture": {
          "index": 1
        }
      }
    },
    {
      "alphaMode": "BLEND",
      "doubleSided": true,
      "name": "Glass",
      "occlusionTexture": {
        "index": 4
      },
      "pbrMetallicRoughness": {
        "baseColorTexture": {
          "index": 3
        },
        "metallicRoughnessTexture": {
          "index": 4
        }
      }
    },
    {
      "doubleSided": true,
      "name": "Goggles",
      "normalTexture": {
        "index": 7
      },
      "occlusionTexture": {
        "index": 6
      },
      "pbrMetallicRoughness": {
        "baseColorTexture": {
          "index": 5
        },
        "metallicRoughnessTexture": {
          "index": 6
        }
      }
    },
    {
      "doubleSided": true,
      "name": "material",
      "normalTexture": {
        "index": 10
      },
      "occlusionTexture": {
        "index": 9
      },
      "pbrMetallicRoughness": {
        "baseColorTexture": {
          "index": 8
        },
        "metallicRoughnessTexture": {
          "index": 9
        }
      }
    }
  ],
  "meshes": [
    {
      "name": "defaultMaterial",
      "primitives": [
        {
          "attributes": {
            "NORMAL": 1,
            "POSITION": 0,
            "TANGENT": 2,
            "TEXCOORD_0": 3
          },
          "indices": 4,
          "material": 3,
          "mode": 4
        }
      ]
    },
    {
      "name": "defaultMaterial",
      "primitives": [
        {
          "attributes": {
            "NORMAL": 6,
            "POSITION": 5,
            "TANGENT": 7,
            "TEXCOORD_0": 8
          },
          "indices": 9,
          "material": 2,
          "mode": 4
        }
      ]
    },
    {
      "name": "defaultMaterial",
      "primitives": [
        {
          "attributes": {
            "NORMAL": 11,
            "POSITION": 10,
            "TEXCOORD_0": 12
          },
          "indices": 13,
          "material": 1,
          "mode": 4
        }
      ]
    },
    {
      "name": "defaultMaterial",
      "primitives": [
        {
          "attributes": {
            "NORMAL": 15,
            "POSITION": 14,
            "TANGENT": 16,
            "TEXCOORD_0": 17
          },
          "indices": 18,
          "material": 0,
          "mode": 4
        }
      ]
    }
  ],
  "nodes": [
    {
      "children": [
        1
      ],
      "matrix": [
        1.0,
        0.0,
        0.0,
        0.0,
        0.0,
        2.220446049250313e-16,
        -1.0,
        0.0,
        0.0,
        1.0,
        2.220446049250313e-16,
        0.0,
        0.0,
        0.0,
        0.0,
        1.0
      ],
      "name": "Sketchfab_model"
    },
    {
      "children": [
        2,
        4,
        6,
        8
      ],
      "matrix": [
        1.0,
        0.0,
        0.0,
        0.0,
        0.0,
        -4.371139006309477e-08,
        0.999999999999999,
        0.0,
        0.0,
        -0.999999999999999,
        -4.371139006309477e-08,
        0.0,
        0.0,
        0.0,
        0.0,
        1.0
      ],
      "name": "Collada visual scene group"
    },
    {
      "children": [
        3
      ],
      "name": "Kit"
    },
    {
      "mesh": 0,
      "name": "defaultMaterial"
    },
    {
      "children": [
        5
      ],
      "name": "Goggles"
    },
    {
      "mesh": 1,
      "name": "defaultMaterial"
    },
    {
      "children": [
        7
      ],
      "name": "Glass"
    },
    {
      "mesh": 2,
      "name": "defaultMaterial"
    },
    {
      "children": [
        9
      ],
      "name": "Mask"
    },
    {
      "mesh": 3,
      "name": "defaultMaterial"
    }
  ],
  "samplers": [
    {
      "magFilter": 9729,
      "minFilter": 9987,
      "wrapS": 10497,
      "wrapT": 10497
    }
  ],
  "scene": 0,
  "scenes": [
    {
      "name": "Sketchfab_Scene",
      "nodes": [
        0
      ]
    }
  ],
  "textures": [
    {
      "sampler": 0,
      "source": 0
    },
    {
      "sampler": 0,
      "source": 1
    },
    {
      "sampler": 0,
      "source": 2
    },
    {
      "sampler": 0,
      "source": 3
    },
    {
      "sampler": 0,
      "source": 4
    },
    {
      "sampler": 0,
      "source": 5
    },
    {
      "sampler": 0,
      "source": 6
    },
    {
      "sampler": 0,
      "source": 7
    },
    {
      "sampler": 0,
      "source": 8
    },
    {
      "sampler": 0,
      "source": 9
    },
    {
      "sampler": 0,
      "source": 10
    }
  ]
}
