{
  "accessors": [
    {
      "bufferView": 2,
      "componentType": 5126,
      "count": 65532,
      "max": [
        6.729050159454346,
        7.699399948120117,
        5.557539939880371
      ],
      "min": [
        -4.9912800788879395,
        -8.693739891052246,
        -0.3364090025424957
      ],
      "type": "VEC3"
    },
    {
      "bufferView": 2,
      "byteOffset": 786384,
      "componentType": 5126,
      "count": 65532,
      "max": [
        0.9999970197677612,
        0.9999827742576599,
        0.9999982118606567
      ],
      "min": [
        -0.9999966025352478,
        -0.9999989867210388,
        -0.9993336200714111
      ],
      "type": "VEC3"
    },
    {
      "bufferView": 1,
      "componentType": 5126,
      "count": 65532,
      "max": [
        0.9998700022697449,
        0.9999300241470337
      ],
      "min": [
        5.999999848427251e-05,
        0.003659490030258894
      ],
      "type": "VEC2"
    },
    {
      "bufferView": 0,
      "componentType": 5125,
      "count": 223602,
      "type": "SCALAR"
    },
    {
      "bufferView": 2,
      "byteOffset": 1572768,
      "componentType": 5126,
      "count": 65532,
      "max": [
        6.716919898986816,
        7.40172004699707,
        5.559110164642334
      ],
      "min": [
        -4.9912800788879395,
        -8.68262004852295,
        -0.044748999178409576
      ],
      "type": "VEC3"
    },
    {
      "bufferView": 2,
      "byteOffset": 2359152,
      "componentType": 5126,
      "count": 65532,
      "max": [
        0.9999798536300659,
        0.9999876618385315,
        0.9999982118606567
      ],
      "min": [
        -0.9999948740005493,
        -0.9999749064445496,
        -0.999971330165863
      ],
      "type": "VEC3"
    },
    {
      "bufferView": 1,
      "byteOffset": 524256,
      "componentType": 5126,
      "count": 65532,
      "max": [
        0.9998599886894226,
        0.9999300241470337
      ],
      "min": [
        0.00011000000085914508,
        0.33296000957489014
      ],
      "type": "VEC2"
    },
    {
      "bufferView": 0,
      "byteOffset": 894408,
      "componentType": 5125,
      "count": 144048,
      "type": "SCALAR"
    },
    {
      "bufferView": 2,
      "byteOffset": 3145536,
      "componentType": 5126,
      "count": 38104,
      "max": [
        6.6307501792907715,
        7.447279930114746,
        5.559110164642334
      ],
      "min": [
        -4.923830032348633,
        -8.270560264587402,
        -0.07367769628763199
      ],
      "type": "VEC3"
    },
    {
      "bufferView": 2,
      "byteOffset": 3602784,
      "componentType": 5126,
      "count": 38104,
      "max": [
        0.9999966621398926,
        0.9999126195907593,
        0.9999946355819702
      ],
      "min": [
        -0.9999908804893494,
        -0.9999231100082397,
        -0.9998273849487305
      ],
      "type": "VEC3"
    },
    {
      "bufferView": 1,
      "byteOffset": 1048512,
      "componentType": 5126,
      "count": 38104,
      "max": [
        0.9998499751091003,
        0.9998700022697449
      ],
      "min": [
        0.00011999999696854502,
        0.3071100115776062
      ],
      "type": "VEC2"
    },
    {
      "bufferView": 0,
      "byteOffset": 1470600,
      "componentType": 5125,
      "count": 68607,
      "type": "SCALAR"
    }
  ],
  "asset": {
    "extras": {
      "author": "R0m1R (https://sketchfab.com/R0m1R)",
      "license": "CC-BY-NC-4.0 (http://creativecommons.org/licenses/by-nc/4.0/)",
      "source": "https://sketchfab.com/3d-models/hrusov-castle-993f6d456a434490b7ad3b9456b97a19",
      "title": "Hrusov Castle"
    },
    "generator": "Sketchfab-12.67.0",
    "version": "2.0"
  },
  "bufferViews": [
    {
      "buffer": 0,
      "byteLength": 1745028,
      "name": "floatBufferViews",
      "target": 34963
    },
    {
      "buffer": 0,
      "byteLength": 1353344,
      "byteOffset": 1745028,
      "byteStride": 8,
      "name": "floatBufferViews",
      "target": 34962
    },
    {
      "buffer": 0,
      "byteLength": 4060032,
      "byteOffset": 3098372,
      "byteStride": 12,
      "name": "floatBufferViews",
      "target": 34962
    }
  ],
  "buffers": [
    {
      "byteLength": 7158404,
      "uri": "scene.bin"
    }
  ],
  "extensionsUsed": [
    "KHR_materials_unlit"
  ],
  "images": [
    {
      "uri": "textures/defaultMat_baseColor.jpeg"
    }
  ],
  "materials": [
    {
      "extensions": {
        "KHR_materials_unlit": {}
      },
      "name": "defaultMat",
      "pbrMetallicRoughness": {
        "baseColorTexture": {
          "index": 0
        },
        "metallicFactor": 0.0
      }
    }
  ],
  "meshes": [
    {
      "name": "Object_0",
      "primitives": [
        {
          "attributes": {
            "NORMAL": 1,
            "POSITION": 0,
            "TEXCOORD_0": 2
          },
          "indices": 3,
          "material": 0,
          "mode": 4
        }
      ]
    },
    {
      "name": "Object_1",
      "primitives": [
        {
          "attributes": {
            "NORMAL": 5,
            "POSITION": 4,
            "TEXCOORD_0": 6
          },
          "indices": 7,
          "material": 0,
          "mode": 4
        }
      ]
    },
    {
      "name": "Object_2",
      "primitives": [
        {
          "attributes": {
            "NORMAL": 9,
            "POSITION": 8,
            "TEXCOORD_0": 10
          },
          "indices": 11,
          "material": 0,
          "mode": 4
        }
      ]
    }
  ],
  "nodes": [
    {
      "children": [
        1
      ],
      "matrix": [
        1.0,
        0.0,
        0.0,
        0.0,
        0.0,
        2.220446049250313e-16,
        -1.0,
        0.0,
        0.0,
        1.0,
        2.220446049250313e-16,
        0.0,
        0.0,
        0.0,
        0.0,
        1.0
      ],
      "name": "Sketchfab_model"
    },
    {
      "children": [
        2,
        3,
        4
      ],
      "name": "e128b37520c64223b3cc32ab727ba0f4.obj.cleaner"
    },
    {
      "mesh": 0,
      "name": "Object_2"
    },
    {
      "mesh": 1,
      "name": "Object_3"
    },
    {
      "mesh": 2,
      "name": "Object_4"
    }
  ],
  "samplers": [
    {
      "magFilter": 9729,
      "minFilter": 9729,
      "wrapS": 10497,
      "wrapT": 10497
    }
  ],
  "scene": 0,
  "scenes": [
    {
      "name": "Sketchfab_Scene",
      "nodes": [
        0
      ]
    }
  ],
  "textures": [
    {
      "sampler": 0,
      "source": 0
    }
  ]
}
